<mxfile host="Electron" modified="2025-01-28T20:24:25.166Z" agent="Mozilla/5.0 (Windows NT 10.0; Win64; x64) AppleWebKit/537.36 (KHTML, like Gecko) draw.io/24.2.5 Chrome/120.0.6099.109 Electron/28.1.0 Safari/537.36" etag="HGgvHQOWkthzlsFisukL" version="24.2.5" type="device">
  <diagram name="Страница — 1" id="pbxbU4uVdTMEM6QKT9mT">
    <mxGraphModel dx="1434" dy="836" grid="1" gridSize="10" guides="1" tooltips="1" connect="1" arrows="1" fold="1" page="1" pageScale="1" pageWidth="1169" pageHeight="827" math="0" shadow="0">
      <root>
        <mxCell id="0" />
        <mxCell id="1" parent="0" />
        <mxCell id="6LApHGnidkyWdorpiX7j-42" style="rounded=0;orthogonalLoop=1;jettySize=auto;html=1;endArrow=none;endFill=0;" edge="1" parent="1" source="VhMJ2MNy0i3m9ZI10xX1-1" target="6LApHGnidkyWdorpiX7j-23">
          <mxGeometry relative="1" as="geometry" />
        </mxCell>
        <mxCell id="6LApHGnidkyWdorpiX7j-52" style="rounded=0;orthogonalLoop=1;jettySize=auto;html=1;endArrow=none;endFill=0;" edge="1" parent="1" source="VhMJ2MNy0i3m9ZI10xX1-1" target="6LApHGnidkyWdorpiX7j-51">
          <mxGeometry relative="1" as="geometry" />
        </mxCell>
        <mxCell id="VhMJ2MNy0i3m9ZI10xX1-1" value="Врач" style="shape=umlActor;verticalLabelPosition=bottom;verticalAlign=top;html=1;outlineConnect=0;" parent="1" vertex="1">
          <mxGeometry x="290" y="130" width="30" height="60" as="geometry" />
        </mxCell>
        <mxCell id="6LApHGnidkyWdorpiX7j-1" style="rounded=0;orthogonalLoop=1;jettySize=auto;html=1;endArrow=none;endFill=0;" edge="1" parent="1" source="VhMJ2MNy0i3m9ZI10xX1-3" target="VhMJ2MNy0i3m9ZI10xX1-6">
          <mxGeometry relative="1" as="geometry" />
        </mxCell>
        <mxCell id="6LApHGnidkyWdorpiX7j-24" style="rounded=0;orthogonalLoop=1;jettySize=auto;html=1;endArrow=none;endFill=0;" edge="1" parent="1" source="VhMJ2MNy0i3m9ZI10xX1-3" target="6LApHGnidkyWdorpiX7j-10">
          <mxGeometry relative="1" as="geometry" />
        </mxCell>
        <mxCell id="6LApHGnidkyWdorpiX7j-48" style="rounded=0;orthogonalLoop=1;jettySize=auto;html=1;endArrow=none;endFill=0;" edge="1" parent="1" source="VhMJ2MNy0i3m9ZI10xX1-3" target="6LApHGnidkyWdorpiX7j-19">
          <mxGeometry relative="1" as="geometry" />
        </mxCell>
        <mxCell id="6LApHGnidkyWdorpiX7j-54" style="rounded=0;orthogonalLoop=1;jettySize=auto;html=1;endArrow=none;endFill=0;" edge="1" parent="1" source="VhMJ2MNy0i3m9ZI10xX1-3" target="6LApHGnidkyWdorpiX7j-16">
          <mxGeometry relative="1" as="geometry" />
        </mxCell>
        <mxCell id="VhMJ2MNy0i3m9ZI10xX1-3" value="Администратор" style="shape=umlActor;verticalLabelPosition=bottom;verticalAlign=top;html=1;outlineConnect=0;" parent="1" vertex="1">
          <mxGeometry x="495" y="500" width="30" height="60" as="geometry" />
        </mxCell>
        <mxCell id="6LApHGnidkyWdorpiX7j-43" style="rounded=0;orthogonalLoop=1;jettySize=auto;html=1;endArrow=none;endFill=0;" edge="1" parent="1" source="VhMJ2MNy0i3m9ZI10xX1-4" target="6LApHGnidkyWdorpiX7j-23">
          <mxGeometry relative="1" as="geometry" />
        </mxCell>
        <mxCell id="6LApHGnidkyWdorpiX7j-45" style="rounded=0;orthogonalLoop=1;jettySize=auto;html=1;endArrow=none;endFill=0;" edge="1" parent="1" source="VhMJ2MNy0i3m9ZI10xX1-4" target="6LApHGnidkyWdorpiX7j-18">
          <mxGeometry relative="1" as="geometry" />
        </mxCell>
        <mxCell id="6LApHGnidkyWdorpiX7j-50" style="rounded=0;orthogonalLoop=1;jettySize=auto;html=1;entryX=0.5;entryY=0;entryDx=0;entryDy=0;endArrow=none;endFill=0;" edge="1" parent="1" source="VhMJ2MNy0i3m9ZI10xX1-4" target="6LApHGnidkyWdorpiX7j-49">
          <mxGeometry relative="1" as="geometry" />
        </mxCell>
        <mxCell id="VhMJ2MNy0i3m9ZI10xX1-4" value="Член комиссии" style="shape=umlActor;verticalLabelPosition=bottom;verticalAlign=top;html=1;outlineConnect=0;" parent="1" vertex="1">
          <mxGeometry x="700" y="130" width="30" height="60" as="geometry" />
        </mxCell>
        <mxCell id="6LApHGnidkyWdorpiX7j-2" style="rounded=0;orthogonalLoop=1;jettySize=auto;html=1;dashed=1;startArrow=none;startFill=0;endArrow=classic;endFill=1;" edge="1" parent="1" source="VhMJ2MNy0i3m9ZI10xX1-6" target="VhMJ2MNy0i3m9ZI10xX1-7">
          <mxGeometry relative="1" as="geometry" />
        </mxCell>
        <mxCell id="6LApHGnidkyWdorpiX7j-6" value="&amp;lt;&amp;lt;include&amp;gt;&amp;gt;" style="edgeLabel;html=1;align=center;verticalAlign=middle;resizable=0;points=[];" vertex="1" connectable="0" parent="6LApHGnidkyWdorpiX7j-2">
          <mxGeometry x="-0.0933" y="2" relative="1" as="geometry">
            <mxPoint as="offset" />
          </mxGeometry>
        </mxCell>
        <mxCell id="6LApHGnidkyWdorpiX7j-3" style="rounded=0;orthogonalLoop=1;jettySize=auto;html=1;dashed=1;startArrow=none;startFill=0;endArrow=classic;endFill=1;" edge="1" parent="1" source="VhMJ2MNy0i3m9ZI10xX1-6" target="VhMJ2MNy0i3m9ZI10xX1-8">
          <mxGeometry relative="1" as="geometry" />
        </mxCell>
        <mxCell id="6LApHGnidkyWdorpiX7j-7" value="&amp;lt;&amp;lt;include&amp;gt;&amp;gt;" style="edgeLabel;html=1;align=center;verticalAlign=middle;resizable=0;points=[];" vertex="1" connectable="0" parent="6LApHGnidkyWdorpiX7j-3">
          <mxGeometry x="-0.0504" relative="1" as="geometry">
            <mxPoint as="offset" />
          </mxGeometry>
        </mxCell>
        <mxCell id="6LApHGnidkyWdorpiX7j-4" style="rounded=0;orthogonalLoop=1;jettySize=auto;html=1;dashed=1;startArrow=none;startFill=0;endArrow=classic;endFill=1;" edge="1" parent="1" source="VhMJ2MNy0i3m9ZI10xX1-6" target="VhMJ2MNy0i3m9ZI10xX1-9">
          <mxGeometry relative="1" as="geometry" />
        </mxCell>
        <mxCell id="6LApHGnidkyWdorpiX7j-8" value="&amp;lt;&amp;lt;include&amp;gt;&amp;gt;" style="edgeLabel;html=1;align=center;verticalAlign=middle;resizable=0;points=[];" vertex="1" connectable="0" parent="6LApHGnidkyWdorpiX7j-4">
          <mxGeometry x="-0.089" y="-1" relative="1" as="geometry">
            <mxPoint as="offset" />
          </mxGeometry>
        </mxCell>
        <mxCell id="VhMJ2MNy0i3m9ZI10xX1-6" value="Управлять сотрудниками" style="ellipse;whiteSpace=wrap;html=1;" parent="1" vertex="1">
          <mxGeometry x="410" y="640" width="200" height="40" as="geometry" />
        </mxCell>
        <mxCell id="VhMJ2MNy0i3m9ZI10xX1-7" value="Добавлять сотрудников" style="ellipse;whiteSpace=wrap;html=1;" parent="1" vertex="1">
          <mxGeometry x="150" y="690" width="200" height="40" as="geometry" />
        </mxCell>
        <mxCell id="VhMJ2MNy0i3m9ZI10xX1-8" value="Редактировать сотрудников" style="ellipse;whiteSpace=wrap;html=1;" parent="1" vertex="1">
          <mxGeometry x="405" y="750" width="200" height="40" as="geometry" />
        </mxCell>
        <mxCell id="VhMJ2MNy0i3m9ZI10xX1-9" value="Просматривать сотрудников" style="ellipse;whiteSpace=wrap;html=1;" parent="1" vertex="1">
          <mxGeometry x="650" y="710" width="200" height="40" as="geometry" />
        </mxCell>
        <mxCell id="6LApHGnidkyWdorpiX7j-25" style="rounded=0;orthogonalLoop=1;jettySize=auto;html=1;dashed=1;" edge="1" parent="1" source="6LApHGnidkyWdorpiX7j-10" target="6LApHGnidkyWdorpiX7j-11">
          <mxGeometry relative="1" as="geometry" />
        </mxCell>
        <mxCell id="6LApHGnidkyWdorpiX7j-36" value="&amp;lt;&amp;lt;include&amp;gt;&amp;gt;" style="edgeLabel;html=1;align=center;verticalAlign=middle;resizable=0;points=[];" vertex="1" connectable="0" parent="6LApHGnidkyWdorpiX7j-25">
          <mxGeometry x="-0.0321" y="-2" relative="1" as="geometry">
            <mxPoint as="offset" />
          </mxGeometry>
        </mxCell>
        <mxCell id="6LApHGnidkyWdorpiX7j-26" style="rounded=0;orthogonalLoop=1;jettySize=auto;html=1;dashed=1;" edge="1" parent="1" source="6LApHGnidkyWdorpiX7j-10" target="6LApHGnidkyWdorpiX7j-13">
          <mxGeometry relative="1" as="geometry" />
        </mxCell>
        <mxCell id="6LApHGnidkyWdorpiX7j-34" value="&amp;lt;&amp;lt;include&amp;gt;&amp;gt;" style="edgeLabel;html=1;align=center;verticalAlign=middle;resizable=0;points=[];" vertex="1" connectable="0" parent="6LApHGnidkyWdorpiX7j-26">
          <mxGeometry x="-0.1299" y="-1" relative="1" as="geometry">
            <mxPoint as="offset" />
          </mxGeometry>
        </mxCell>
        <mxCell id="6LApHGnidkyWdorpiX7j-27" style="rounded=0;orthogonalLoop=1;jettySize=auto;html=1;dashed=1;" edge="1" parent="1" source="6LApHGnidkyWdorpiX7j-10" target="6LApHGnidkyWdorpiX7j-15">
          <mxGeometry relative="1" as="geometry" />
        </mxCell>
        <mxCell id="6LApHGnidkyWdorpiX7j-35" value="&amp;lt;&amp;lt;include&amp;gt;&amp;gt;" style="edgeLabel;html=1;align=center;verticalAlign=middle;resizable=0;points=[];" vertex="1" connectable="0" parent="6LApHGnidkyWdorpiX7j-27">
          <mxGeometry x="0.0245" y="-1" relative="1" as="geometry">
            <mxPoint y="1" as="offset" />
          </mxGeometry>
        </mxCell>
        <mxCell id="6LApHGnidkyWdorpiX7j-10" value="Управлять призывниками" style="ellipse;whiteSpace=wrap;html=1;" vertex="1" parent="1">
          <mxGeometry x="290" y="480" width="200" height="40" as="geometry" />
        </mxCell>
        <mxCell id="6LApHGnidkyWdorpiX7j-11" value="Добавлять призывников" style="ellipse;whiteSpace=wrap;html=1;" vertex="1" parent="1">
          <mxGeometry x="60" y="570" width="200" height="40" as="geometry" />
        </mxCell>
        <mxCell id="6LApHGnidkyWdorpiX7j-13" value="Редактировать призывников" style="ellipse;whiteSpace=wrap;html=1;" vertex="1" parent="1">
          <mxGeometry x="20" y="450" width="200" height="40" as="geometry" />
        </mxCell>
        <mxCell id="6LApHGnidkyWdorpiX7j-15" value="Просматривать призывников" style="ellipse;whiteSpace=wrap;html=1;" vertex="1" parent="1">
          <mxGeometry x="180" y="340" width="200" height="40" as="geometry" />
        </mxCell>
        <mxCell id="6LApHGnidkyWdorpiX7j-32" style="rounded=0;orthogonalLoop=1;jettySize=auto;html=1;dashed=1;" edge="1" parent="1" source="6LApHGnidkyWdorpiX7j-16" target="6LApHGnidkyWdorpiX7j-18">
          <mxGeometry relative="1" as="geometry" />
        </mxCell>
        <mxCell id="6LApHGnidkyWdorpiX7j-39" value="&amp;lt;&amp;lt;include&amp;gt;&amp;gt;" style="edgeLabel;html=1;align=center;verticalAlign=middle;resizable=0;points=[];" vertex="1" connectable="0" parent="6LApHGnidkyWdorpiX7j-32">
          <mxGeometry x="0.3604" y="-2" relative="1" as="geometry">
            <mxPoint as="offset" />
          </mxGeometry>
        </mxCell>
        <mxCell id="6LApHGnidkyWdorpiX7j-33" style="rounded=0;orthogonalLoop=1;jettySize=auto;html=1;dashed=1;" edge="1" parent="1" source="6LApHGnidkyWdorpiX7j-16" target="6LApHGnidkyWdorpiX7j-17">
          <mxGeometry relative="1" as="geometry" />
        </mxCell>
        <mxCell id="6LApHGnidkyWdorpiX7j-41" value="&amp;lt;&amp;lt;include&amp;gt;&amp;gt;" style="edgeLabel;html=1;align=center;verticalAlign=middle;resizable=0;points=[];" vertex="1" connectable="0" parent="6LApHGnidkyWdorpiX7j-33">
          <mxGeometry x="-0.0846" y="1" relative="1" as="geometry">
            <mxPoint as="offset" />
          </mxGeometry>
        </mxCell>
        <mxCell id="6LApHGnidkyWdorpiX7j-16" value="Управлять призывными&lt;div&gt;комиссиями&lt;/div&gt;" style="ellipse;whiteSpace=wrap;html=1;" vertex="1" parent="1">
          <mxGeometry x="710" y="600" width="200" height="40" as="geometry" />
        </mxCell>
        <mxCell id="6LApHGnidkyWdorpiX7j-17" value="Добавлять призывные&lt;div&gt;комиссии&lt;/div&gt;" style="ellipse;whiteSpace=wrap;html=1;" vertex="1" parent="1">
          <mxGeometry x="950" y="650" width="200" height="40" as="geometry" />
        </mxCell>
        <mxCell id="6LApHGnidkyWdorpiX7j-18" value="Просматривать призывные&lt;div&gt;комиссии&lt;/div&gt;" style="ellipse;whiteSpace=wrap;html=1;" vertex="1" parent="1">
          <mxGeometry x="930" y="380" width="200" height="40" as="geometry" />
        </mxCell>
        <mxCell id="6LApHGnidkyWdorpiX7j-29" style="rounded=0;orthogonalLoop=1;jettySize=auto;html=1;dashed=1;" edge="1" parent="1" source="6LApHGnidkyWdorpiX7j-19" target="6LApHGnidkyWdorpiX7j-23">
          <mxGeometry relative="1" as="geometry" />
        </mxCell>
        <mxCell id="6LApHGnidkyWdorpiX7j-37" value="&amp;lt;&amp;lt;include&amp;gt;&amp;gt;" style="edgeLabel;html=1;align=center;verticalAlign=middle;resizable=0;points=[];" vertex="1" connectable="0" parent="6LApHGnidkyWdorpiX7j-29">
          <mxGeometry x="-0.2117" y="-2" relative="1" as="geometry">
            <mxPoint as="offset" />
          </mxGeometry>
        </mxCell>
        <mxCell id="6LApHGnidkyWdorpiX7j-30" style="rounded=0;orthogonalLoop=1;jettySize=auto;html=1;dashed=1;" edge="1" parent="1" source="6LApHGnidkyWdorpiX7j-19" target="6LApHGnidkyWdorpiX7j-20">
          <mxGeometry relative="1" as="geometry" />
        </mxCell>
        <mxCell id="6LApHGnidkyWdorpiX7j-38" value="&amp;lt;&amp;lt;include&amp;gt;&amp;gt;" style="edgeLabel;html=1;align=center;verticalAlign=middle;resizable=0;points=[];" vertex="1" connectable="0" parent="6LApHGnidkyWdorpiX7j-30">
          <mxGeometry x="-0.201" y="-3" relative="1" as="geometry">
            <mxPoint as="offset" />
          </mxGeometry>
        </mxCell>
        <mxCell id="6LApHGnidkyWdorpiX7j-19" value="Управлять повестками" style="ellipse;whiteSpace=wrap;html=1;" vertex="1" parent="1">
          <mxGeometry x="590" y="490" width="200" height="40" as="geometry" />
        </mxCell>
        <mxCell id="6LApHGnidkyWdorpiX7j-20" value="Добавлять повестки" style="ellipse;whiteSpace=wrap;html=1;" vertex="1" parent="1">
          <mxGeometry x="710" y="380" width="200" height="40" as="geometry" />
        </mxCell>
        <mxCell id="6LApHGnidkyWdorpiX7j-23" value="Просматривать повестки" style="ellipse;whiteSpace=wrap;html=1;" vertex="1" parent="1">
          <mxGeometry x="430" y="330" width="200" height="40" as="geometry" />
        </mxCell>
        <mxCell id="6LApHGnidkyWdorpiX7j-47" style="rounded=0;orthogonalLoop=1;jettySize=auto;html=1;entryX=0.621;entryY=0.033;entryDx=0;entryDy=0;entryPerimeter=0;endArrow=none;endFill=0;" edge="1" parent="1" source="VhMJ2MNy0i3m9ZI10xX1-1" target="6LApHGnidkyWdorpiX7j-15">
          <mxGeometry relative="1" as="geometry" />
        </mxCell>
        <mxCell id="6LApHGnidkyWdorpiX7j-49" value="Выносить вердикт" style="ellipse;whiteSpace=wrap;html=1;" vertex="1" parent="1">
          <mxGeometry x="670" y="280" width="200" height="40" as="geometry" />
        </mxCell>
        <mxCell id="6LApHGnidkyWdorpiX7j-51" value="Добавлять данные о&lt;div&gt;мед комиссии&lt;/div&gt;" style="ellipse;whiteSpace=wrap;html=1;" vertex="1" parent="1">
          <mxGeometry x="40" y="240" width="200" height="40" as="geometry" />
        </mxCell>
        <mxCell id="6LApHGnidkyWdorpiX7j-56" style="rounded=0;orthogonalLoop=1;jettySize=auto;html=1;dashed=1;" edge="1" parent="1" source="6LApHGnidkyWdorpiX7j-55" target="6LApHGnidkyWdorpiX7j-23">
          <mxGeometry relative="1" as="geometry" />
        </mxCell>
        <mxCell id="6LApHGnidkyWdorpiX7j-57" value="&amp;lt;&amp;lt;extend&amp;gt;&amp;gt;" style="edgeLabel;html=1;align=center;verticalAlign=middle;resizable=0;points=[];" vertex="1" connectable="0" parent="6LApHGnidkyWdorpiX7j-56">
          <mxGeometry x="-0.5636" y="-2" relative="1" as="geometry">
            <mxPoint as="offset" />
          </mxGeometry>
        </mxCell>
        <mxCell id="6LApHGnidkyWdorpiX7j-55" value="Формировать документ" style="ellipse;whiteSpace=wrap;html=1;" vertex="1" parent="1">
          <mxGeometry x="430" y="180" width="200" height="40" as="geometry" />
        </mxCell>
      </root>
    </mxGraphModel>
  </diagram>
</mxfile>
